<svg width="209" height="56" viewBox="0 0 209 56" fill="none" xmlns="http://www.w3.org/2000/svg">
<path d="M9.49272 28.0002L4.74431 32.7479L0 28.0002L4.74431 23.2526L9.49272 28.0002ZM21.0047 16.4721L29.1348 24.612L33.8791 19.8644L21.0047 6.98096L8.13017 19.8644L12.8745 24.612L21.0047 16.4721ZM37.2691 23.2526L32.5248 28.0002L37.2691 32.7479L42.0093 28.0002L37.2691 23.2526ZM21.0047 39.5284L12.8745 31.3926L8.13017 36.1361L21.0047 49.0195L33.8791 36.1361L29.1348 31.3926L21.0047 39.5284ZM21.0047 32.7479L25.749 28.0002L21.0047 23.2526L16.2603 28.0002L21.0047 32.7479ZM71.0744 33.2037V33.138C71.0744 30.0414 69.4327 28.4931 66.761 27.4745C68.4026 26.5505 69.7898 25.1007 69.7898 22.5011V22.4353C69.7898 18.813 66.8923 16.4721 62.1849 16.4721H51.4979V39.5284H62.4558C67.6557 39.5284 71.0826 37.4215 71.0826 33.2037H71.0744ZM64.7541 23.3471C64.7541 25.0597 63.3382 25.7866 61.1015 25.7866H56.4351V20.9199H61.438C63.5762 20.9199 64.7623 21.7741 64.7623 23.2896L64.7541 23.3471ZM66.0387 32.5713C66.0387 34.2838 64.6884 35.0724 62.4476 35.0724H56.4351V30.0085H62.2916C64.8936 30.0085 66.0469 30.9654 66.0469 32.5138L66.0387 32.5713ZM81.7244 39.5284V16.4721H76.6395V39.5284H81.7244ZM108.971 39.5284V16.4721H103.952V30.6697L93.1584 16.4721H88.4838V39.5284H93.4867V24.8708L104.642 39.5284H108.971ZM137.047 39.5284L127.157 16.3078H122.482L112.612 39.5284H117.779L119.892 34.3578H129.635L131.741 39.5284H137.047ZM127.834 29.8771H121.694L124.756 22.4025L127.834 29.8771ZM161.208 39.5284V16.4721H156.189V30.6697L145.391 16.4721H140.721V39.5284H145.719V24.8708L156.878 39.5284H161.208ZM187.372 35.8075L184.15 32.5466C182.34 34.1894 180.727 35.2449 178.092 35.2449C174.144 35.2449 171.411 31.9593 171.411 28.0002V27.9345C171.411 23.9837 174.21 20.7556 178.092 20.7556C180.395 20.7556 182.196 21.7413 183.986 23.3553L187.199 19.6344C185.061 17.5276 182.463 16.0778 178.117 16.0778C171.041 16.0778 166.104 21.4456 166.104 27.9879V28.0536C166.104 34.674 171.14 39.9103 177.92 39.9103C182.356 39.9227 184.987 38.3415 187.355 35.8075H187.372ZM209 39.5284V35.0108H196.474V30.1605H207.338V25.6429H196.474V20.9856H208.819V16.468H191.439V39.5243L209 39.5284Z" fill="white"/>
</svg>
