<svg width="96" height="56" viewBox="0 0 96 56" fill="none" xmlns="http://www.w3.org/2000/svg">
<path d="M10.2002 19.3291C15.158 19.3293 18.041 22.0297 18.041 26.2607C18.0409 28.9963 16.1843 30.7682 14.9023 31.3564C16.4322 32.051 18.3945 33.61 18.3945 36.8984C18.3945 41.5052 15.1508 43.9999 10.625 44H0V19.3291H10.2002ZM31.0869 29.2725L35.7617 19.3291H41.1445L33.5166 33.8789V44H28.5938V33.8789L20.9658 19.3291H26.3486L31.0869 29.2725ZM54.7725 19.3291C59.7305 19.3291 62.6133 22.0296 62.6133 26.2607C62.6131 28.9963 60.7575 30.7682 59.4756 31.3564C61.0055 32.051 62.9677 33.61 62.9678 36.8984C62.9678 41.5053 59.7232 44 55.1973 44H44.5732V19.3291H54.7725ZM95.9521 23.624H89.3154V44H84.3652V23.624H77.7285V19.3291H95.9521V23.624ZM4.95117 39.7051H10.1221C12.3672 39.705 13.4365 38.3227 13.4365 36.6572C13.4363 34.9919 12.367 33.6456 10.1221 33.6455V33.6387H4.95117V39.7051ZM49.5244 39.7051H54.6943C56.9396 39.7051 58.0098 38.3228 58.0098 36.6572C58.0096 34.9919 56.9394 33.6455 54.6943 33.6455V33.6387H49.5244V39.7051ZM73.3438 36.6709H68.3857V12H73.3438V36.6709ZM4.95117 29.3076H9.80273C11.9064 29.3076 13.082 28.1668 13.082 26.4658C13.082 24.772 11.9063 23.624 9.80273 23.624H4.95117V29.3076ZM49.5244 29.3076H54.376C56.4796 29.3076 57.6553 28.1668 57.6553 26.4658C57.6552 24.772 56.4795 23.624 54.376 23.624H49.5244V29.3076Z" fill="white"/>
</svg>
