<svg width="107" height="33" viewBox="0 0 107 33" fill="none" xmlns="http://www.w3.org/2000/svg">
<path d="M68.623 22.2734C69.0158 22.2734 69.334 22.5917 69.334 22.9844V32.2285C69.3339 32.6211 69.0157 32.9395 68.623 32.9395H59.3789C58.9863 32.9395 58.6681 32.6211 58.668 32.2285V22.9844C58.668 22.5917 58.9862 22.2734 59.3789 22.2734H68.623ZM84.6367 22.2734C85.0296 22.2734 85.3477 22.5917 85.3477 22.9844V32.2285C85.3475 32.6211 85.0295 32.9395 84.6367 32.9395H75.3926C74.9999 32.9395 74.6818 32.6211 74.6816 32.2285V22.9844C74.6816 22.5917 74.9998 22.2734 75.3926 22.2734H84.6367ZM105.971 22.2734C106.363 22.2735 106.682 22.5917 106.682 22.9844V32.2285C106.682 32.6211 106.363 32.9394 105.971 32.9395H96.7256C96.3331 32.9392 96.0148 32.621 96.0146 32.2285V22.9844C96.0146 22.5918 96.3331 22.2737 96.7256 22.2734H105.971ZM31.2891 0.939453C31.4776 0.939453 31.6587 1.01424 31.792 1.14746C31.9254 1.2807 32.0009 1.46175 32.001 1.65039V32.2275C32.0009 32.4161 31.9254 32.5972 31.792 32.7305C31.6587 32.8637 31.4776 32.9385 31.2891 32.9385H0.710938C0.522663 32.9384 0.342156 32.8636 0.208984 32.7305C0.0755742 32.5972 2.6648e-05 32.4161 0 32.2275V1.65039C5.31752e-05 1.46175 0.0755979 1.2807 0.208984 1.14746C0.342158 1.01434 0.522653 0.939547 0.710938 0.939453H31.2891ZM47.29 0.939453C47.4785 0.939553 47.6596 1.01412 47.793 1.14746C47.9262 1.28069 48.0009 1.46178 48.001 1.65039V11.5977H57.9561C58.1444 11.5977 58.3256 11.6725 58.459 11.8057C58.5922 11.9389 58.6679 12.1201 58.668 12.3086V21.5527C58.668 21.7413 58.5923 21.9222 58.459 22.0557C58.3256 22.1889 58.1446 22.2646 57.9561 22.2646H48.001V32.2119C48.0009 32.4001 47.9259 32.5807 47.793 32.7139C47.6596 32.8472 47.4785 32.9228 47.29 32.9229H38.0449C37.8563 32.9228 37.6752 32.8472 37.542 32.7139C37.4088 32.5807 37.3341 32.4002 37.334 32.2119V1.65039C37.334 1.46175 37.4086 1.2807 37.542 1.14746C37.6752 1.01409 37.8563 0.939515 38.0449 0.939453H47.29ZM95.3076 11.6074C95.7003 11.6074 96.0195 11.9257 96.0195 12.3184V21.5625C96.0195 21.9552 95.7003 22.2734 95.3076 22.2734H86.0635C85.6708 22.2734 85.3525 21.9552 85.3525 21.5625V12.3184C85.3526 11.9257 85.6708 11.6074 86.0635 11.6074H95.3076ZM11.3779 11.6055C11.1894 11.6055 11.0084 11.6811 10.875 11.8145C10.742 11.9476 10.6671 12.1281 10.667 12.3164V21.5615C10.6671 21.7498 10.742 21.9302 10.875 22.0635C11.0084 22.1967 11.1894 22.2724 11.3779 22.2725H20.623C20.8115 22.2724 20.9927 22.1967 21.126 22.0635C21.259 21.9302 21.3339 21.7497 21.334 21.5615V12.3164C21.3339 12.1282 21.2591 11.9476 21.126 11.8145C20.9927 11.6811 20.8115 11.6055 20.623 11.6055H11.3779ZM68.623 0.94043C69.0158 0.94043 69.334 1.25851 69.334 1.65137V10.8955C69.334 11.2882 69.0158 11.6064 68.623 11.6064H59.3789C58.9862 11.6064 58.668 11.2882 58.668 10.8955V1.65137C58.668 1.25851 58.9862 0.94043 59.3789 0.94043H68.623ZM84.6367 0.94043C85.0296 0.94043 85.3477 1.25851 85.3477 1.65137V10.8955C85.3476 11.2882 85.0296 11.6064 84.6367 11.6064H75.3926C74.9999 11.6064 74.6817 11.2882 74.6816 10.8955V1.65137C74.6816 1.25851 74.9998 0.94043 75.3926 0.94043H84.6367ZM105.971 0.94043C106.363 0.940444 106.682 1.25852 106.682 1.65137V10.8955C106.682 11.2882 106.363 11.6064 105.971 11.6064H96.7256C96.3331 11.6062 96.0147 11.2881 96.0146 10.8955V1.65137C96.0146 1.25866 96.3331 0.940665 96.7256 0.94043H105.971Z" fill="white"/>
</svg>
