<svg width="146" height="24" viewBox="0 0 146 24" fill="none" xmlns="http://www.w3.org/2000/svg">
<path d="M63.2535 0.28125C69.8262 0.281525 75.1735 5.83979 75.1735 12.1396V23.4092H70.5455V19.6484L70.2086 19.5596C69.3936 21.5576 66.4418 24 63.0612 24C56.4885 23.9999 51.3329 18.708 51.3326 12.2031C51.3326 5.69798 56.6808 0.28125 63.2535 0.28125ZM88.5699 0.28125C95.1428 0.28125 100.491 5.83963 100.491 12.1396V23.4092H95.8629V19.6484L95.526 19.5596C94.711 21.5576 91.7591 24 88.3785 24C81.806 24 76.6502 18.7081 76.65 12.2031C76.65 5.69812 81.9974 0.281476 88.5699 0.28125ZM133.205 0.28125C139.777 0.281361 145.125 5.63042 145.125 12.2031C145.125 12.5991 145.027 13.7143 145.026 13.7217H126.646C127.355 16.8183 130.105 19.0613 133.201 19.0615C137.24 19.0615 139.022 15.6143 139.022 15.6143H144.625C143.662 19.1356 139.807 23.9999 133.205 24C126.602 24 121.284 18.7768 121.284 12.2031C121.284 5.62926 126.632 0.28125 133.205 0.28125ZM17.6891 14.6387C20.2737 14.6387 22.3695 16.7338 22.3698 19.3184C22.3698 21.903 20.2739 23.999 17.6891 23.999C15.1044 23.999 13.0094 21.903 13.0094 19.3184C13.0097 16.7338 15.1046 14.6387 17.6891 14.6387ZM29.9186 14.6387C32.5032 14.6387 34.599 16.7338 34.5992 19.3184C34.5992 21.903 32.5034 23.999 29.9186 23.999C27.3339 23.9988 25.2389 21.9029 25.2389 19.3184C25.2392 16.7339 27.3341 14.6389 29.9186 14.6387ZM23.8014 0C36.5079 0 46.8105 10.4992 46.8082 23.4463H40.9313C40.9313 13.7434 33.3225 5.87598 23.8014 5.87598C14.2805 5.87598 6.67249 13.7434 6.67249 23.4463H0.794556C0.79123 10.4992 11.0939 6.87217e-06 23.8014 0ZM110.92 17.4736L117.882 0.875H123.078L113.581 23.4072H108.259L98.7604 0.875H103.958L110.92 17.4736ZM63.2535 5.21777C59.5415 5.21777 56.5192 8.33417 56.5192 12.166C56.5192 15.9978 59.5403 19.0625 63.2535 19.0625C66.9666 19.0622 69.9869 15.9689 69.9869 12.166C69.9869 8.36316 66.9665 5.21805 63.2535 5.21777ZM88.5699 5.21777C84.858 5.218 81.8366 8.33431 81.8365 12.166C81.8365 15.9977 84.8569 19.0623 88.5699 19.0625C92.2832 19.0625 95.3043 15.969 95.3043 12.166C95.3043 8.363 92.2832 5.21777 88.5699 5.21777ZM133.205 5.21777C130.234 5.21777 127.656 7.17801 126.777 10.0996H139.632C138.75 7.17808 136.173 5.21786 133.205 5.21777Z" fill="white"/>
</svg>
