<svg width="320" height="24" viewBox="0 0 320 24" fill="none" xmlns="http://www.w3.org/2000/svg">
<path d="M34.6963 15.7598L34.4346 16.4883L17.8438 24H17.3525L0.762695 16.4893L0.5 15.7598L8.93262 0L10.0098 0.243164V14.7178L17.1992 8.03418H17.998L25.1865 14.7178V0.243164L26.2646 0L34.6963 15.7598ZM252.636 18.0557C252.636 18.3548 252.914 18.7294 253.626 19.4023C254.336 20.0378 254.732 20.3369 255.049 20.3369H260.03C260.348 20.3369 260.743 20.0753 261.455 19.4023C262.166 18.7294 262.483 18.3548 262.483 18.0557V0.746094H265.726V17.9443C265.725 18.991 265.448 19.7387 264.775 20.4863C264.301 20.9723 263.471 21.7573 263.076 22.0938C262.086 22.991 261.375 23.2529 260.109 23.2529H255.009C253.902 23.2529 253.111 22.991 252.359 22.3555C251.845 21.9441 250.976 21.1589 250.619 20.7852C249.71 19.8505 249.395 19.1777 249.395 17.9443V0.746094H252.636V18.0557ZM57.6182 18.6172L62.0078 0.746094H65.4873L69.8369 18.6172L73.8701 0.746094H77.2314L71.8936 23.0664H67.8994L63.7471 5.94238L59.5957 23.0664H55.5615L50.3027 0.746094H53.6641L57.6182 18.6172ZM91.168 23.0664H87.9258V0.746094H91.168V23.0664ZM117.229 18.0186V0.746094H120.472V23.0664H116.637L107.384 5.94238V23.0664H104.141V0.746094H108.016L117.229 18.0186ZM148.433 3.69922H141.79V23.0664H138.547V3.69922H131.943V0.746094H148.433V3.69922ZM174.168 3.69922H163.175V10.4668H173.417V13.3828H163.175V20.1494H174.168V23.0664H159.933V0.746094H174.168V3.69922ZM198.15 0.746094C198.981 0.746094 199.772 0.932965 200.483 1.41895C200.997 1.75544 202.105 2.76493 202.461 3.25098C202.935 3.92388 203.133 4.70911 203.133 5.49414V8.9707C203.133 9.75576 202.935 10.5409 202.461 11.2139C202.105 11.6999 200.997 12.7094 200.483 13.0459C200.049 13.3448 199.614 13.4943 199.14 13.6064L204.043 23.0664H200.404L195.699 13.7188H190.202V23.0664H186.96V0.746094H198.15ZM226.159 13.457L232.289 0.746094H236.401V23.0664H233.159V5.68066L227.622 17.1963H224.696L219.161 5.64355V23.0664H215.918V0.746094H220.03L226.159 13.457ZM293.687 3.69922H287.044V23.0664H283.801V3.69922H277.198V0.746094H293.687V3.69922ZM319.422 3.69922H308.429V10.4668H318.67V13.3828H308.429V20.1494H319.422V23.0664H305.187V0.746094H319.422V3.69922ZM10.2549 16.001L17.0283 22.2383V9.70312L10.2549 16.001ZM18.168 22.2383L24.9414 16.001L18.168 9.70215V22.2383ZM3.5166 16.542L14.7168 21.6123L9.20898 16.541L3.5166 16.542ZM20.4795 21.6123L31.6807 16.541H25.9873L20.4795 21.6123ZM1.93457 15.4648H8.87109V2.50098L1.93457 15.4648ZM26.3252 15.4639H33.2617L26.3252 2.50098V15.4639ZM190.202 10.7656H197.795C198.269 10.7656 198.586 10.6155 199.14 10.0547C199.732 9.53149 199.891 9.23245 199.891 8.82129V5.64355C199.891 5.23232 199.693 4.93279 199.14 4.37207C198.586 3.84866 198.269 3.69923 197.795 3.69922H190.202V10.7656Z" fill="white"/>
</svg>
